<svg width="16" height="16" viewBox="0 0 16 16" fill="none" xmlns="http://www.w3.org/2000/svg">
<g clip-path="url(#clip0_216_8)">
<path d="M11 11L11.2379 10.7621C11.7259 10.2741 12 9.61232 12 8.92224C12 8.64258 11.9549 8.36474 11.8665 8.09943L11.7963 7.88893C11.6014 7.30434 11.2732 6.77315 10.8374 6.33743L10.7106 6.21063C10.2456 5.74563 9.663 5.41575 9.02502 5.25626C8.35558 5.08889 7.65229 5.1159 6.99765 5.33412L6.97252 5.34249C6.65891 5.44703 6.36063 5.59291 6.08557 5.77628L5.59669 6.10221C5.2028 6.3648 4.8648 6.7028 4.60221 7.09669L4.58561 7.12159C4.20376 7.69436 4 8.36734 4 9.05572V9.08579C4 9.99129 4.35971 10.8597 5 11.5" stroke="white" stroke-opacity="0.16" stroke-width="1.2" stroke-linecap="round"/>
<path d="M11.5 13.5L11.7632 13.3245C11.8942 13.2372 11.9597 13.1935 12.0229 13.1485C12.6461 12.7045 13.1591 12.1234 13.5223 11.45C13.5591 11.3817 13.5944 11.3113 13.6648 11.1705L13.6799 11.1402C13.7005 11.099 13.7108 11.0784 13.7209 11.0578C13.9025 10.6861 14.0373 10.2933 14.1221 9.88835C14.1268 9.8659 14.1313 9.84332 14.1404 9.79816C14.1633 9.68364 14.1747 9.62638 14.1846 9.5703C14.3643 8.55204 14.2238 7.50313 13.7826 6.56802C13.7583 6.51651 13.7321 6.46428 13.6799 6.35982L13.6545 6.3089C13.5943 6.18855 13.5642 6.12837 13.533 6.06991C13.1656 5.38136 12.6421 4.78838 12.0045 4.33842C11.9503 4.30021 11.8943 4.26289 11.7824 4.18825L11.0959 3.73058C10.9445 3.62966 10.8688 3.57921 10.7922 3.53203C10.2597 3.20406 9.67039 2.97891 9.05485 2.86825C8.96632 2.85233 8.87627 2.83947 8.69616 2.81374L8.60569 2.80081C8.39432 2.77062 8.28863 2.75552 8.18562 2.74513C7.10313 2.63599 6.01457 2.8829 5.08511 3.44841C4.99666 3.50223 4.90783 3.56145 4.73017 3.67989C4.60575 3.76283 4.54355 3.8043 4.48351 3.84693C3.8553 4.29301 3.33868 4.87823 2.97397 5.55692C2.93911 5.62178 2.90567 5.68865 2.8388 5.82239L2.35411 6.79177C2.29956 6.90089 2.27228 6.95544 2.24643 7.01043C2.09199 7.33905 1.9738 7.68352 1.89396 8.03774C1.8806 8.09701 1.86864 8.15682 1.84471 8.27645L1.71627 8.91866C1.57514 9.62429 1.6423 10.3557 1.90955 11.0239C2.2866 11.9665 3.0335 12.7134 3.97612 13.0904L5 13.5" stroke="white" stroke-opacity="0.16" stroke-width="1.2" stroke-linecap="round"/>
<path d="M6 9C6 7.89543 6.89543 7 8 7V7C9.10457 7 10 7.89543 10 9V18.7641H6V9Z" fill="#EFC192"/>
<path d="M6.5 9C6.5 8.17157 7.17157 7.5 8 7.5V7.5C8.82843 7.5 9.5 8.17157 9.5 9V9.75C9.5 10.1642 9.16421 10.5 8.75 10.5H7.25C6.83579 10.5 6.5 10.1642 6.5 9.75V9Z" fill="white" stroke="#B4793D" stroke-width="0.2" stroke-dasharray="0.4 0.4"/>
</g>
<defs>
<clipPath id="clip0_216_8">
<rect width="16" height="16" rx="5" fill="white"/>
</clipPath>
</defs>
</svg>
