<svg width="16" height="16" viewBox="0 0 16 16" fill="none" xmlns="http://www.w3.org/2000/svg">
<g clip-path="url(#clip0_215_5)">
<rect width="16" height="16" rx="5" fill="#1F2937"/>
<g filter="url(#filter0_i_215_5)">
<path d="M2 9.2V6.8C2 5.11984 2 4.27976 2.32698 3.63803C2.6146 3.07354 3.07354 2.6146 3.63803 2.32698C4.27976 2 5.11984 2 6.8 2H9.2C10.8802 2 11.7202 2 12.362 2.32698C12.9265 2.6146 13.3854 3.07354 13.673 3.63803C14 4.27976 14 5.11984 14 6.8V9.2C14 10.8802 14 11.7202 13.673 12.362C13.3854 12.9265 12.9265 13.3854 12.362 13.673C11.7202 14 10.8802 14 9.2 14H6.8C5.11984 14 4.27976 14 3.63803 13.673C3.07354 13.3854 2.6146 12.9265 2.32698 12.362C2 11.7202 2 10.8802 2 9.2Z" fill="url(#paint0_linear_215_5)"/>
</g>
<g filter="url(#filter1_f_215_5)">
<path d="M4.5 6.5L5.85668 7.31401C6.23379 7.54027 6.42234 7.65341 6.48631 7.79971C6.54213 7.9274 6.54213 8.0726 6.48631 8.20029C6.42234 8.34659 6.23379 8.45973 5.85668 8.68599L4.5 9.5" stroke="#93C5FD" stroke-opacity="0.32" stroke-linecap="round"/>
</g>
<g filter="url(#filter2_d_215_5)">
<path d="M4.5 6.5L5.85668 7.31401C6.23379 7.54027 6.42234 7.65341 6.48631 7.79971C6.54213 7.9274 6.54213 8.0726 6.48631 8.20029C6.42234 8.34659 6.23379 8.45973 5.85668 8.68599L4.5 9.5" stroke="#93C5FD" stroke-linecap="round"/>
</g>
<g filter="url(#filter3_f_215_5)">
<path d="M6.5 11H8H9.5" stroke="#FFF200" stroke-opacity="0.32" stroke-linecap="round"/>
</g>
<g filter="url(#filter4_d_215_5)">
<path d="M6.5 11H8H9.5" stroke="#FFF200" stroke-linecap="round"/>
</g>
</g>
<defs>
<filter id="filter0_i_215_5" x="2" y="2" width="12" height="16" filterUnits="userSpaceOnUse" color-interpolation-filters="sRGB">
<feFlood flood-opacity="0" result="BackgroundImageFix"/>
<feBlend mode="normal" in="SourceGraphic" in2="BackgroundImageFix" result="shape"/>
<feColorMatrix in="SourceAlpha" type="matrix" values="0 0 0 0 0 0 0 0 0 0 0 0 0 0 0 0 0 0 127 0" result="hardAlpha"/>
<feOffset dy="4"/>
<feGaussianBlur stdDeviation="2"/>
<feComposite in2="hardAlpha" operator="arithmetic" k2="-1" k3="1"/>
<feColorMatrix type="matrix" values="0 0 0 0 0 0 0 0 0 0 0 0 0 0 0 0 0 0 0.25 0"/>
<feBlend mode="normal" in2="shape" result="effect1_innerShadow_215_5"/>
</filter>
<filter id="filter1_f_215_5" x="1.99992" y="3.99988" width="7.02825" height="8.00024" filterUnits="userSpaceOnUse" color-interpolation-filters="sRGB">
<feFlood flood-opacity="0" result="BackgroundImageFix"/>
<feBlend mode="normal" in="SourceGraphic" in2="BackgroundImageFix" result="shape"/>
<feGaussianBlur stdDeviation="1" result="effect1_foregroundBlur_215_5"/>
</filter>
<filter id="filter2_d_215_5" x="-7.53403e-05" y="5.99988" width="11.0283" height="12.0002" filterUnits="userSpaceOnUse" color-interpolation-filters="sRGB">
<feFlood flood-opacity="0" result="BackgroundImageFix"/>
<feColorMatrix in="SourceAlpha" type="matrix" values="0 0 0 0 0 0 0 0 0 0 0 0 0 0 0 0 0 0 127 0" result="hardAlpha"/>
<feOffset dy="4"/>
<feGaussianBlur stdDeviation="2"/>
<feComposite in2="hardAlpha" operator="out"/>
<feColorMatrix type="matrix" values="0 0 0 0 0 0 0 0 0 0 0 0 0 0 0 0 0 0 0.25 0"/>
<feBlend mode="normal" in2="BackgroundImageFix" result="effect1_dropShadow_215_5"/>
<feBlend mode="normal" in="SourceGraphic" in2="effect1_dropShadow_215_5" result="shape"/>
</filter>
<filter id="filter3_f_215_5" x="4" y="8.5" width="8" height="5" filterUnits="userSpaceOnUse" color-interpolation-filters="sRGB">
<feFlood flood-opacity="0" result="BackgroundImageFix"/>
<feBlend mode="normal" in="SourceGraphic" in2="BackgroundImageFix" result="shape"/>
<feGaussianBlur stdDeviation="1" result="effect1_foregroundBlur_215_5"/>
</filter>
<filter id="filter4_d_215_5" x="2" y="10.5" width="12" height="9" filterUnits="userSpaceOnUse" color-interpolation-filters="sRGB">
<feFlood flood-opacity="0" result="BackgroundImageFix"/>
<feColorMatrix in="SourceAlpha" type="matrix" values="0 0 0 0 0 0 0 0 0 0 0 0 0 0 0 0 0 0 127 0" result="hardAlpha"/>
<feOffset dy="4"/>
<feGaussianBlur stdDeviation="2"/>
<feComposite in2="hardAlpha" operator="out"/>
<feColorMatrix type="matrix" values="0 0 0 0 0 0 0 0 0 0 0 0 0 0 0 0 0 0 0.25 0"/>
<feBlend mode="normal" in2="BackgroundImageFix" result="effect1_dropShadow_215_5"/>
<feBlend mode="normal" in="SourceGraphic" in2="effect1_dropShadow_215_5" result="shape"/>
</filter>
<linearGradient id="paint0_linear_215_5" x1="14" y1="2" x2="0.5" y2="14.5" gradientUnits="userSpaceOnUse">
<stop stop-color="#111827"/>
<stop offset="1" stop-color="#2A1234"/>
</linearGradient>
<clipPath id="clip0_215_5">
<rect width="16" height="16" fill="white"/>
</clipPath>
</defs>
</svg>
